# xmcd
#
# Track frame offsets:
#	150
#	19126
#	45058
#	78025
#	107454
#	132759
#	155793
#	180833
#	218210
#
# Disc length: 3155 seconds
#
# Revision: 0
# Processed by: cddbd v1.4b42PL1 Copyright (c) Steve Scherf et al.
# Submitted via: OrangeCD 4.1
#
DISCID=5e0c5109
DTITLE=Willie Foster - Live at Airport Grocery
DYEAR=1900
DGENRE=
TTITLE0=Just Messin' Round
TTITLE1=Love Everybody
TTITLE2=Honey Ain't Sweet
TTITLE3=Hoochie Coochie Man
TTITLE4=Janie On My Mind
TTITLE5=Promise Me Love
TTITLE6=Goin to St. Louis
TTITLE7=My Dear Old Dad
TTITLE8=Willie's Boogie
EXTD=
EXTT0=
EXTT1=
EXTT2=
EXTT3=
EXTT4=
EXTT5=
EXTT6=
EXTT7=
EXTT8=
PLAYORDER=
